<svg width="102" height="46" viewBox="0 0 102 46" fill="none" xmlns="http://www.w3.org/2000/svg">
<rect width="26" height="25" transform="translate(13.9131 13.7734)" fill="url(#paint0_linear_2456_1271)"/>
<path fill-rule="evenodd" clip-rule="evenodd" d="M23.2958 2.11072C22.0934 2.28952 21.4239 2.54167 20.658 3.10417C20.1032 3.5116 19.2808 4.41412 19.0579 4.86024C18.7019 5.57273 18.4519 6.17431 18.4519 6.31883C18.4519 6.55331 18.1315 7.48329 18.025 7.558C17.9696 7.59679 15.7044 7.62915 12.9911 7.63002C8.22803 7.63136 8.03111 7.63866 7.28419 7.8404C5.34443 8.3644 3.77434 9.95473 3.09351 12.085C2.92038 12.6269 2.91309 13.204 2.91309 26.4407C2.91309 39.6659 2.92047 40.2574 3.09389 40.8556C3.25292 41.4046 3.37925 41.6823 3.95351 42.7457C4.22429 43.2471 5.38049 44.2624 6.09077 44.6227C7.60839 45.3924 7.65511 45.395 19.459 45.3462C27.341 45.3137 29.6965 45.277 29.9381 45.1829C30.1914 45.0844 30.3084 45.0853 30.5616 45.1879C30.8074 45.2875 32.4362 45.3212 38.2591 45.347C44.6346 45.3753 45.7892 45.3588 46.6999 45.2267C48.2158 45.0066 49.2837 44.4621 50.3872 43.3463C50.792 42.9369 50.8418 42.8591 51.3153 41.8959C51.9515 40.6015 51.9118 41.628 51.9139 26.4519C51.9161 11.324 51.9526 12.3033 51.3395 11.0403C50.9883 10.3169 50.9126 10.2018 50.4407 9.67146C49.6041 8.7315 48.6135 8.11695 47.4574 7.82101C46.8054 7.65402 46.3252 7.63732 41.9071 7.62704C38.0981 7.61821 37.0489 7.58959 36.9684 7.49261C36.9122 7.42472 36.8271 7.05763 36.7793 6.67661C36.7309 6.2906 36.6252 5.90958 36.5406 5.81595C36.4571 5.72348 36.3887 5.59309 36.3887 5.52625C36.3887 5.1462 35.4355 3.92431 34.6413 3.28623C33.2078 2.13444 32.669 2.03275 27.8519 2.00414C25.1634 1.9882 23.9242 2.0172 23.2958 2.11072ZM24.6261 4.75077L22.9829 4.79878L22.4576 5.16108C21.9493 5.51185 21.2335 6.22376 21.2335 6.37874C21.2335 6.42061 21.1437 6.65788 21.0341 6.9061C20.9245 7.15432 20.8586 7.41982 20.8878 7.49607C20.9336 7.61542 21.8616 7.63117 27.5538 7.60908C31.1908 7.59497 34.188 7.56184 34.2141 7.53544C34.2402 7.50903 34.1723 7.21501 34.063 6.8821C33.8312 6.17498 33.1494 5.38683 32.456 5.02444C32.038 4.80589 31.9335 4.79725 29.1468 4.75077C27.5642 4.72437 25.5298 4.72437 24.6261 4.75077ZM35.6244 14.5534C35.336 14.6558 35.064 14.8039 35.0202 14.8824C34.9763 14.961 34.9047 15.0252 34.8612 15.0252C34.7607 15.0252 33.1419 16.6748 32.741 17.1857C32.5752 17.397 32.0741 17.948 31.6276 18.41C30.8379 19.227 30.8033 19.2502 30.3738 19.2502C30.103 19.2502 29.297 19.0474 28.2925 18.7265C26.5014 18.1544 23.9574 17.3862 23.1999 17.1887C22.3258 16.9608 20.4207 16.3718 20.2622 16.2805C20.1763 16.2311 19.9389 16.1592 19.7346 16.1209C19.5303 16.0827 19.2336 15.9988 19.0754 15.9346C18.9171 15.8703 18.6237 15.7883 18.4234 15.7524C18.0613 15.6874 18.0528 15.6933 16.9606 16.7796C15.9837 17.7514 15.8623 17.9087 15.8635 18.2012C15.8644 18.3821 15.8967 18.5793 15.9355 18.6394C15.9742 18.6996 16.5023 19.0182 17.109 19.3475C17.7157 19.6767 18.2802 20.0055 18.3636 20.0782C18.4468 20.1509 18.5505 20.2104 18.5939 20.2104C18.6373 20.2104 19.0008 20.3989 19.4017 20.6294C19.8025 20.8598 20.4758 21.2336 20.8978 21.4601C21.3199 21.6866 21.8262 21.9733 22.0229 22.0974C22.2198 22.2215 22.4053 22.3229 22.4352 22.3229C22.5333 22.3229 25.6902 24.0698 25.8284 24.2005C25.944 24.3098 25.9422 24.3595 25.8157 24.5497C25.5514 24.9472 21.214 29.3259 21.0251 29.3859C20.9241 29.418 20.6384 29.3991 20.39 29.3438C20.1418 29.2885 19.4422 29.1503 18.8356 29.0365C18.2289 28.9227 17.573 28.7978 17.378 28.7589C17.0326 28.6899 17.0047 28.7069 16.2989 29.4158C15.803 29.9138 15.5743 30.2156 15.5743 30.3722C15.5743 30.5455 16.5152 31.5419 19.4532 34.4798C22.5884 37.6151 23.3802 38.3588 23.5836 38.3588C23.7686 38.3588 24.0114 38.1791 24.5007 37.6806C25.1361 37.0331 25.166 36.982 25.162 36.5523C25.1597 36.3047 25.0943 35.9294 25.0166 35.7181C24.939 35.5069 24.8307 34.9922 24.7761 34.5743C24.7214 34.1565 24.6358 33.738 24.5858 33.6444C24.5357 33.5508 24.4948 33.321 24.4948 33.1339C24.4948 32.8175 24.6609 32.6265 26.844 30.4327C29.0203 28.2459 29.2156 28.0742 29.4951 28.1022C29.7446 28.1271 29.8436 28.2155 30.0671 28.6124C30.2158 28.8765 30.3853 29.2006 30.4439 29.3326C30.6696 29.8413 31.1368 30.7315 31.2503 30.869C31.3156 30.9482 31.5073 31.2842 31.6761 31.6157C31.845 31.9471 32.0667 32.3576 32.1688 32.5279C32.2709 32.6981 32.4352 32.9887 32.5339 33.1735C32.6326 33.3584 32.8584 33.7689 33.0357 34.0857C33.6427 35.1704 33.7837 35.4307 34.0487 35.9562C34.2973 36.449 34.649 37.0294 34.838 37.2589C34.8836 37.3141 34.9624 37.4843 35.0134 37.6371C35.0642 37.7899 35.2162 37.9975 35.3513 38.0983C35.5695 38.2616 35.6247 38.2671 35.8507 38.1486C36.2768 37.925 38.2111 35.9668 38.2111 35.7588C38.2111 35.6546 38.1248 35.3234 38.0193 35.0229C37.9138 34.7224 37.8274 34.4167 37.8274 34.3437C37.8274 34.2706 37.7642 34.0746 37.6869 33.9082C37.6096 33.7418 37.5035 33.4328 37.4512 33.2215C37.3455 32.7957 37.1421 32.1035 36.9292 31.4451C36.7692 30.9503 36.4889 30.0265 36.2444 29.1886C36.1519 28.8717 36.0094 28.418 35.9276 28.1803C35.8458 27.9427 35.7467 27.597 35.7075 27.4122C35.6683 27.2273 35.5702 26.8816 35.4896 26.644C35.409 26.4063 35.2703 25.9526 35.1815 25.6357C35.0928 25.3189 34.9429 24.8219 34.8483 24.5315C34.6424 23.8986 34.545 23.2581 34.6236 23.0532C34.655 22.9712 35.0327 22.6046 35.4628 22.2385C36.708 21.1789 38.7737 19.1882 39.0368 18.7941C39.8244 17.6149 39.6824 16.0393 38.699 15.0449C38.0271 14.3655 36.7347 14.159 35.6244 14.5534Z" fill="#EBE600"/>
<path d="M59.4893 12.9004H69.0093V15.7004H65.7893V32.5004H62.7093V15.7004H59.4893V12.9004Z" fill="white"/>
<path d="M76.8057 32.5004C76.7684 32.3697 76.7311 32.2484 76.6937 32.1364C76.6564 32.0244 76.6191 31.8844 76.5817 31.7164C76.5631 31.5484 76.5444 31.3337 76.5257 31.0724C76.5257 30.8111 76.5257 30.4844 76.5257 30.0924V27.0124C76.5257 26.0977 76.3671 25.4537 76.0497 25.0804C75.7324 24.7071 75.2191 24.5204 74.5097 24.5204H73.4457V32.5004H70.3657V12.9004H75.0137C76.6191 12.9004 77.7764 13.2737 78.4857 14.0204C79.2137 14.7671 79.5777 15.8964 79.5777 17.4084V18.9484C79.5777 20.9644 78.9057 22.2897 77.5617 22.9244C78.3457 23.2417 78.8777 23.7644 79.1577 24.4924C79.4564 25.2017 79.6057 26.0697 79.6057 27.0964V30.1204C79.6057 30.6057 79.6244 31.0351 79.6617 31.4084C79.6991 31.7631 79.7924 32.1271 79.9417 32.5004H76.8057ZM73.4457 15.7004V21.7204H74.6497C75.2284 21.7204 75.6764 21.5711 75.9937 21.2724C76.3297 20.9737 76.4977 20.4324 76.4977 19.6484V17.7164C76.4977 17.0071 76.3671 16.4937 76.1057 16.1764C75.8631 15.8591 75.4711 15.7004 74.9297 15.7004H73.4457Z" fill="white"/>
<path d="M86.2247 28.8884L88.5767 12.9004H91.4047L88.3807 32.5004H83.7887L80.7647 12.9004H83.8727L86.2247 28.8884Z" fill="white"/>
<path d="M92.8423 12.9004H95.9223V29.7004H100.99V32.5004H92.8423V12.9004Z" fill="white"/>
<defs>
<linearGradient id="paint0_linear_2456_1271" x1="0" y1="12.5" x2="26" y2="12.5" gradientUnits="userSpaceOnUse">
<stop stop-color="#CC2B5E"/>
<stop offset="1" stop-color="#753A88"/>
</linearGradient>
</defs>
</svg>
